<?xml version="1.0" standalone="no"?>
<!DOCTYPE svg PUBLIC "-//W3C//DTD SVG 20010904//EN"
 "http://www.w3.org/TR/2001/REC-SVG-20010904/DTD/svg10.dtd">
<svg version="1.0" xmlns="http://www.w3.org/2000/svg"
 width="300.000000pt" height="300.000000pt" viewBox="0 0 300.000000 300.000000"
 preserveAspectRatio="xMidYMid meet">
<metadata>
Created by potrace 1.11, written by Peter Selinger 2001-2013
</metadata>
<g transform="translate(0.000000,300.000000) scale(0.100000,-0.100000)"
fill="#000000" stroke="none">
<path d="M0 1500 l0 -1500 225 0 225 0 0 23 c0 21 37 86 72 128 22 26 103 77
134 85 17 4 26 3 21 -2 -5 -5 -12 -9 -15 -9 -16 0 -72 -28 -72 -36 0 -4 -9
-10 -19 -14 -28 -9 -102 -109 -106 -144 l-4 -31 1269 0 1270 0 0 1500 0 1500
-1500 0 -1500 0 0 -1500z m1379 1284 c14 -12 -19 -1 -35 12 -18 14 -18 14 6 3
14 -6 27 -13 29 -15z m19 -55 c-3 -20 -5 -19 -9 9 -3 20 -2 29 4 23 5 -5 7
-19 5 -32z m-128 27 c0 -3 -4 -8 -10 -11 -5 -3 -10 -1 -10 4 0 6 5 11 10 11 6
0 10 -2 10 -4z m1 -48 c11 -21 11 -22 -4 -9 -10 7 -17 17 -17 22 0 15 9 10 21
-13z m114 -18 c-3 -5 -12 -10 -18 -10 -7 0 -6 4 3 10 19 12 23 12 15 0z m-88
-22 c-3 -8 -6 -5 -6 6 -1 11 2 17 5 13 3 -3 4 -12 1 -19z m48 -58 c0 -33 -3
-60 -7 -60 -5 0 -8 27 -8 60 0 33 3 60 8 60 4 0 7 -27 7 -60z m-45 36 c0 -3
-4 -8 -10 -11 -5 -3 -10 -1 -10 4 0 6 5 11 10 11 6 0 10 -2 10 -4z m-15 -35
c3 -5 1 -12 -5 -16 -5 -3 -10 1 -10 9 0 18 6 21 15 7z m-15 -75 c-14 -14 -22
-2 -14 18 5 14 9 15 15 4 4 -7 4 -17 -1 -22z m104 2 c-5 -8 -2 -9 9 -5 10 3
17 2 17 -4 0 -6 5 -7 12 -3 7 4 8 3 4 -4 -4 -7 -1 -12 8 -12 8 0 13 -7 12 -15
-4 -24 -37 -54 -54 -48 -12 5 -11 8 6 14 30 11 28 43 -4 58 -20 9 -30 9 -40 0
-11 -9 -14 -8 -14 4 0 14 14 22 43 26 5 0 5 -4 1 -11z m-156 -26 c-13 -9 -28
-23 -35 -32 -6 -8 -14 -12 -18 -9 -3 4 1 13 9 22 8 8 13 17 11 21 -3 3 -2 4 1
1 4 -2 13 3 21 11 8 8 19 11 25 8 5 -3 -1 -13 -14 -22z m162 -87 c0 -3 -9 -1
-20 5 -11 6 -20 18 -20 27 0 14 3 13 20 -5 11 -12 20 -24 20 -27z m-185 25
c-8 -12 -7 -12 32 -1 28 8 31 7 36 -15 2 -14 0 -27 -4 -30 -8 -5 -13 9 -10 28
0 4 -12 5 -27 2 -19 -4 -32 -1 -41 10 -11 14 -11 16 3 16 10 0 14 -4 11 -10z
m168 -45 c4 -8 2 -17 -3 -20 -6 -4 -10 3 -10 14 0 25 6 27 13 6z m12 -44 c3
-5 1 -12 -5 -16 -5 -3 -10 1 -10 9 0 18 6 21 15 7z m-103 -56 c3 -14 1 -25 -3
-25 -5 0 -9 11 -9 25 0 14 2 25 4 25 2 0 6 -11 8 -25z m105 3 c-3 -8 -6 -5 -6
6 -1 11 2 17 5 13 3 -3 4 -12 1 -19z m23 -28 c0 -5 -4 -10 -10 -10 -5 0 -10 5
-10 10 0 6 5 10 10 10 6 0 10 -4 10 -10z m81 -100 c32 0 59 -4 59 -9 0 -12
-28 -22 -34 -12 -3 4 -22 7 -42 6 -40 -2 -58 17 -68 70 -4 21 -1 17 10 -12
l16 -43 59 0z m-204 38 c-3 -7 -5 -2 -5 12 0 14 2 19 5 13 2 -7 2 -19 0 -25z
m641 -15 c-10 -2 -26 -2 -35 0 -10 3 -2 5 17 5 19 0 27 -2 18 -5z m-91 -9 c-3
-3 -12 -4 -19 -1 -8 3 -5 6 6 6 11 1 17 -2 13 -5z m-529 -16 c-2 -7 -20 -21
-38 -30 -19 -10 -38 -26 -42 -35 -7 -16 -8 -15 -5 2 1 12 16 26 35 34 17 8 32
21 32 28 0 7 5 13 11 13 6 0 9 -6 7 -12z m371 -2 c-10 -10 -59 -14 -64 -5 -4
5 11 9 31 9 21 0 35 -2 33 -4z m61 -10 c0 -2 -9 -6 -20 -9 -11 -3 -20 -1 -20
4 0 5 9 9 20 9 11 0 20 -2 20 -4z m40 -10 c0 -11 -19 -15 -25 -6 -3 5 1 10 9
10 9 0 16 -2 16 -4z m30 -16 c0 -5 -2 -10 -4 -10 -3 0 -8 5 -11 10 -3 6 -1 10
4 10 6 0 11 -4 11 -10z m-269 -42 c-5 -26 -16 -38 -51 -55 -24 -13 -53 -23
-65 -22 -11 0 -2 6 20 13 67 21 85 37 85 74 0 18 4 31 9 28 5 -3 6 -20 2 -38z
m364 1 c64 -45 75 -55 75 -68 0 -6 5 -11 10 -11 6 0 10 -7 10 -15 0 -7 8 -19
18 -24 9 -6 12 -11 5 -11 -6 0 -22 15 -35 33 -38 54 -61 75 -118 107 -30 17
-44 28 -30 24 14 -4 43 -20 65 -35z m-665 -32 c0 -8 10 -19 23 -25 18 -10 18
-11 3 -9 -21 2 -56 47 -37 47 6 0 11 -6 11 -13z m-30 -7 c0 -5 -5 -10 -11 -10
-5 0 -7 5 -4 10 3 6 8 10 11 10 2 0 4 -4 4 -10z m-36 -25 c-4 -8 -11 -15 -16
-15 -6 0 -5 6 2 15 7 8 14 15 16 15 2 0 1 -7 -2 -15z m143 -11 c-3 -3 -12 -4
-19 -1 -8 3 -5 6 6 6 11 1 17 -2 13 -5z m66 -11 c-7 -2 -21 -2 -30 0 -10 3 -4
5 12 5 17 0 24 -2 18 -5z m-259 -22 c-10 -10 -21 -17 -23 -15 -6 6 20 34 32
34 6 0 2 -8 -9 -19z m-50 -43 c-34 -40 -42 -48 -50 -48 -4 0 7 16 26 35 38 39
54 47 24 13z m975 -43 c0 -5 -6 1 -14 15 -8 14 -14 30 -14 35 0 6 6 -1 14 -15
8 -14 14 -29 14 -35z m-1043 -41 c-23 -22 -77 -130 -69 -138 4 -3 1 -6 -5 -6
-16 0 -16 4 14 63 32 63 64 110 71 103 3 -3 -2 -13 -11 -22z m1064 22 c0 -3
-4 -8 -10 -11 -5 -3 -10 -1 -10 4 0 6 5 11 10 11 6 0 10 -2 10 -4z m5 -36 c3
-5 1 -10 -4 -10 -6 0 -11 5 -11 10 0 6 2 10 4 10 3 0 8 -4 11 -10z m2 -42 c-3
-8 -6 -5 -6 6 -1 11 2 17 5 13 3 -3 4 -12 1 -19z m18 -37 c3 -5 1 -12 -5 -16
-5 -3 -10 1 -10 9 0 18 6 21 15 7z m8 -66 c-7 -21 -13 -19 -13 6 0 11 4 18 10
14 5 -3 7 -12 3 -20z m-1185 -20 c-1 -14 -6 -25 -11 -25 -5 0 -6 7 -3 16 3 9
6 20 6 25 0 5 2 9 5 9 3 0 4 -11 3 -25z m655 -29 c2 -6 1 -20 -4 -31 -7 -18
-8 -17 -8 6 l-1 26 -222 0 c-194 0 -224 -2 -230 -16 -6 -12 -7 -12 -5 4 2 19
12 20 202 25 221 6 262 3 268 -14z m540 -40 c2 -20 0 -36 -5 -36 -4 0 -8 19
-8 42 0 49 9 46 13 -6z m-1218 -6 c-9 -41 -17 -33 -9 9 4 17 9 30 11 27 3 -2
2 -19 -2 -36z m236 -30 c17 0 28 -4 25 -8 -13 -22 -67 0 -65 26 1 15 2 15 6 0
3 -12 14 -18 34 -18z m354 -9 c-34 -8 -175 -5 -183 4 -3 3 44 4 104 4 63 -1
96 -4 79 -8z m-602 -46 c-7 -21 -13 -19 -13 6 0 11 4 18 10 14 5 -3 7 -12 3
-20z m-9 -116 c1 -35 -1 -75 -5 -89 -4 -14 -7 15 -8 69 -1 105 9 120 13 20z
m1238 27 c-6 -48 -12 -46 -12 5 0 22 4 38 8 35 4 -3 6 -21 4 -40z m-375 -61
c9 -24 -1 -27 -15 -5 -8 13 -8 20 -2 20 6 0 13 -7 17 -15z m-37 -3 c0 -4 -10
-9 -22 -9 -18 -2 -20 0 -8 7 18 12 30 13 30 2z m403 -15 c3 -8 1 -20 -4 -28
-6 -10 -9 -7 -9 14 0 29 5 35 13 14z m-453 -7 c0 -5 -2 -10 -4 -10 -3 0 -8 5
-11 10 -3 6 -1 10 4 10 6 0 11 -4 11 -10z m-40 -9 c-8 -5 -26 -11 -40 -15 -21
-5 -20 -3 5 9 32 15 60 20 35 6z m137 -33 c-3 -8 -6 -5 -6 6 -1 11 2 17 5 13
3 -3 4 -12 1 -19z m-222 2 c-11 -5 -27 -9 -35 -9 -9 0 -8 4 5 9 11 5 27 9 35
9 9 0 8 -4 -5 -9z m562 -32 c-3 -7 -5 -2 -5 12 0 14 2 19 5 13 2 -7 2 -19 0
-25z m-617 18 c0 -11 -19 -15 -25 -6 -3 5 1 10 9 10 9 0 16 -2 16 -4z m-40
-10 c0 -2 -7 -6 -15 -10 -8 -3 -15 -1 -15 4 0 6 7 10 15 10 8 0 15 -2 15 -4z
m333 -21 c-7 -21 -13 -19 -13 6 0 11 4 18 10 14 5 -3 7 -12 3 -20z m-699 8
c-5 -5 -12 -12 -16 -18 -4 -6 -8 -2 -8 8 0 9 7 17 17 17 9 0 12 -3 7 -7z m309
0 c-7 -2 -21 -2 -30 0 -10 3 -4 5 12 5 17 0 24 -2 18 -5z m-496 -40 c-3 -10
-5 -4 -5 12 0 17 2 24 5 18 2 -7 2 -21 0 -30z m430 31 c-7 -7 -189 -6 -196 1
-2 3 42 5 99 5 57 0 101 -3 97 -6z m783 -18 c0 -3 -4 -8 -10 -11 -5 -3 -10 -1
-10 4 0 6 5 11 10 11 6 0 10 -2 10 -4z m-1022 -71 c0 -16 -2 -15 -8 5 -4 14
-8 34 -8 45 0 16 2 15 8 -5 4 -14 8 -34 8 -45z m699 33 c-3 -7 -5 -2 -5 12 0
14 2 19 5 13 2 -7 2 -19 0 -25z m296 -16 c-3 -12 -9 -22 -14 -22 -5 0 -3 11 3
25 13 30 20 28 11 -3z m-1176 -4 c-3 -8 -6 -5 -6 6 -1 11 2 17 5 13 3 -3 4
-12 1 -19z m896 -13 c4 -8 2 -17 -3 -20 -6 -4 -10 3 -10 14 0 25 6 27 13 6z
m-867 -52 c1 -7 14 -33 27 -58 14 -25 22 -45 18 -45 -8 0 -71 130 -71 146 1
11 24 -27 26 -43z m1124 29 c0 -4 -10 -13 -22 -21 -23 -14 -23 -14 -4 8 20 22
26 25 26 13z m-955 -54 c3 -34 1 -37 -5 -18 -10 31 -12 76 -4 67 4 -4 8 -26 9
-49z m710 22 c3 -5 1 -10 -4 -10 -6 0 -11 5 -11 10 0 6 2 10 4 10 3 0 8 -4 11
-10z m195 -25 c-7 -8 -17 -15 -23 -15 -6 0 -2 7 9 15 25 19 30 19 14 0z m-222
-29 c-8 -8 -39 -27 -69 -42 -30 -15 -57 -32 -60 -37 -4 -5 -9 -5 -12 0 -3 5
21 22 53 37 32 16 67 37 76 47 9 11 19 17 22 15 2 -3 -2 -12 -10 -20z m171
-18 c-40 -37 -143 -108 -156 -108 -5 0 12 13 37 29 25 16 63 45 85 64 22 20
44 36 49 37 5 0 -2 -10 -15 -22z m-836 -23 c-7 -21 -13 -19 -13 6 0 11 4 18
10 14 5 -3 7 -12 3 -20z m-105 -51 c-4 -3 -12 5 -18 18 -12 22 -12 22 6 6 10
-10 15 -20 12 -24z m127 8 c-3 -3 -11 0 -18 7 -9 10 -8 11 6 5 10 -3 15 -9 12
-12z m460 -7 c-16 -8 -37 -14 -45 -14 -8 0 1 7 20 14 46 18 64 17 25 0z m-395
-9 c25 -8 36 -15 25 -15 -11 0 -33 6 -50 14 -39 18 -31 18 25 1z m-141 -40
c-2 -2 -13 8 -23 22 l-19 27 24 -22 c12 -12 21 -24 18 -27z m464 27 c-7 -2
-19 -2 -25 0 -7 3 -2 5 12 5 14 0 19 -2 13 -5z m-213 -7 c0 -8 -51 -13 -56 -5
-3 5 9 9 25 9 17 0 31 -2 31 -4z m151 -5 c-8 -5 -23 -8 -34 -5 -36 6 -31 14 9
14 27 0 35 -3 25 -9z m-311 -61 c0 -10 -3 -11 -8 -4 -4 6 -22 19 -39 28 -46
23 -41 28 7 8 22 -9 40 -24 40 -32z m580 25 c-7 -8 -17 -15 -22 -15 -6 0 -5 7
2 15 7 8 17 15 22 15 6 0 5 -7 -2 -15z m-49 -72 c-11 -21 -20 -35 -21 -31 0
12 33 78 38 74 2 -2 -6 -21 -17 -43z m-516 -213 c-1 -116 -5 -213 -8 -217 -4
-3 -7 28 -7 71 0 74 -1 77 -21 71 -15 -5 -19 -4 -15 4 4 6 14 11 22 11 11 0
14 24 14 135 0 74 4 135 8 135 5 0 7 -95 7 -210z m539 140 c-3 -48 -14 -49
-14 -1 0 23 4 40 8 37 5 -3 7 -19 6 -36z m-51 -25 c-7 -21 -13 -19 -13 6 0 11
4 18 10 14 5 -3 7 -12 3 -20z m54 -62 c-3 -10 -5 -4 -5 12 0 17 2 24 5 18 2
-7 2 -21 0 -30z m170 -19 c-9 -10 -97 -12 -97 -2 0 4 23 8 52 8 28 0 49 -3 45
-6z m54 -13 c-8 -5 -20 -7 -28 -4 -21 8 -15 13 15 13 20 0 23 -3 13 -9z m113
-16 c86 -23 191 -70 265 -120 89 -61 106 -74 99 -80 -3 -4 -19 6 -34 20 -35
32 -145 101 -156 98 -4 -2 -8 1 -8 6 0 9 -48 26 -62 23 -5 -1 -8 2 -8 8 0 6
-3 9 -7 9 -5 -1 -11 0 -15 1 -5 1 -11 3 -15 5 -5 1 -15 5 -23 8 -8 3 -40 13
-70 21 -30 8 -48 15 -40 15 9 1 42 -6 74 -14z m-390 -51 c-3 -64 -14 -68 -14
-6 0 29 4 52 8 52 5 0 7 -21 6 -46z m-554 -44 c0 -5 -3 -9 -7 -8 -12 4 -73
-23 -73 -32 0 -4 -13 -13 -30 -20 -16 -7 -30 -15 -30 -19 0 -4 -15 -15 -32
-26 -18 -10 -41 -28 -51 -39 -10 -12 -33 -37 -51 -56 -18 -19 -40 -49 -50 -66
-11 -18 -26 -30 -37 -29 -29 2 -36 15 -8 15 16 0 30 9 41 28 47 77 153 170
271 238 46 26 57 29 57 14z m557 -127 c-2 -16 -4 -3 -4 27 0 30 2 43 4 28 2
-16 2 -40 0 -55z m858 -70 c34 -35 71 -63 81 -63 20 -1 72 -30 115 -65 40 -33
79 -92 84 -127 5 -31 4 -31 -4 -6 -19 56 -106 158 -135 158 -8 0 -16 5 -18 11
-2 5 -10 11 -18 13 -43 7 -68 24 -131 88 -38 39 -69 73 -69 76 0 7 30 -19 95
-85z m-1305 -15 c16 -15 26 -28 21 -28 -15 0 -71 70 -70 88 0 12 3 10 10 -7 5
-14 23 -37 39 -53z m440 25 c0 -10 -14 -26 -30 -35 -17 -9 -30 -14 -30 -9 0 4
11 13 25 19 14 6 25 18 25 27 0 8 2 15 5 15 3 0 5 -8 5 -17z m-70 -47 c0 -2
-7 -6 -15 -10 -8 -3 -15 -1 -15 4 0 6 7 10 15 10 8 0 15 -2 15 -4z m-261 -22
c10 -9 -45 -3 -59 6 -11 7 -5 8 20 4 19 -4 37 -8 39 -10z m211 12 c0 -2 -7 -6
-15 -10 -8 -3 -15 -1 -15 4 0 6 7 10 15 10 8 0 15 -2 15 -4z m-52 -13 c-10 -2
-26 -2 -35 0 -10 3 -2 5 17 5 19 0 27 -2 18 -5z"/>
</g>
</svg>
